<svg width="1280" height="316" viewBox="0 0 1280 316" fill="none" xmlns="http://www.w3.org/2000/svg">
<rect width="1280" height="316" fill="url(#paint0_linear_1130_390)"/>
<path d="M491 77C424.297 77 410 91.2965 410 158C410 224.703 424.297 239 491 239C557.703 239 572 224.703 572 158C572 91.2965 557.703 77 491 77Z" fill="white"/>
<path d="M491 77C424.297 77 410 91.2965 410 158C410 224.703 424.297 239 491 239C557.704 239 572 224.703 572 158C572 91.2965 557.704 77 491 77ZM446 113H473C477.971 113 482 117.029 482 122C482 126.971 477.971 131 473 131H446C441.03 131 437 126.971 437 122C437 117.029 441.03 113 446 113ZM446 185H464C468.971 185 473 189.029 473 194C473 198.971 468.971 203 464 203H446C441.03 203 437 198.971 437 194C437 189.029 441.03 185 446 185ZM446 149H500C504.971 149 509 153.029 509 158C509 162.971 504.971 167 500 167H446C441.03 167 437 162.971 437 158C437 153.029 441.03 149 446 149ZM552.2 172.4L525.2 208.4C523.635 210.487 521.241 211.792 518.638 211.977C516.036 212.162 513.481 211.209 511.636 209.364L493.636 191.364C490.122 187.849 490.122 182.151 493.636 178.636C497.151 175.121 502.849 175.121 506.364 178.636L517.026 189.298L537.8 161.6C540.783 157.624 546.424 156.818 550.4 159.8C554.377 162.782 555.183 168.424 552.2 172.4Z" fill="url(#paint1_linear_1130_390)"/>
<path d="M622.385 200V115.636H642.776V151.31H643.888L671.776 115.636H695.791L665.885 153.287L696.327 200H671.941L650.932 166.839L642.776 177.138V200H622.385ZM728.767 201.195C722.148 201.195 716.436 199.89 711.63 197.281C706.852 194.645 703.172 190.896 700.59 186.036C698.036 181.147 696.759 175.339 696.759 168.611C696.759 162.075 698.05 156.363 700.632 151.474C703.213 146.559 706.852 142.741 711.548 140.023C716.244 137.277 721.777 135.903 728.149 135.903C732.652 135.903 736.772 136.604 740.507 138.004C744.241 139.405 747.468 141.478 750.187 144.224C752.906 146.971 755.02 150.362 756.531 154.399C758.041 158.409 758.796 163.009 758.796 168.199V173.224H703.803V161.526H740.053C740.026 159.384 739.518 157.475 738.529 155.8C737.541 154.125 736.181 152.82 734.451 151.886C732.749 150.925 730.785 150.445 728.561 150.445C726.309 150.445 724.29 150.953 722.505 151.969C720.72 152.957 719.306 154.317 718.262 156.047C717.219 157.75 716.669 159.686 716.615 161.855V173.76C716.615 176.341 717.123 178.607 718.139 180.557C719.155 182.479 720.597 183.976 722.464 185.047C724.331 186.118 726.556 186.653 729.137 186.653C730.922 186.653 732.543 186.406 733.998 185.912C735.454 185.418 736.703 184.69 737.747 183.729C738.79 182.768 739.573 181.587 740.095 180.186L758.59 180.722C757.821 184.868 756.133 188.48 753.524 191.555C750.942 194.604 747.551 196.979 743.349 198.682C739.147 200.357 734.286 201.195 728.767 201.195ZM789.228 115.636V200H769.084V115.636H789.228ZM802.049 223.727V136.727H821.987V147.561H822.605C823.428 145.639 824.596 143.785 826.106 142C827.644 140.215 829.594 138.759 831.955 137.634C834.345 136.48 837.201 135.903 840.524 135.903C844.918 135.903 849.023 137.057 852.84 139.364C856.685 141.67 859.788 145.227 862.15 150.033C864.512 154.839 865.693 160.963 865.693 168.405C865.693 175.572 864.553 181.573 862.274 186.406C860.022 191.24 856.973 194.865 853.129 197.281C849.312 199.698 845.069 200.906 840.4 200.906C837.214 200.906 834.454 200.384 832.12 199.341C829.786 198.297 827.822 196.924 826.23 195.222C824.664 193.519 823.456 191.693 822.605 189.743H822.193V223.727H802.049ZM821.781 168.364C821.781 171.769 822.234 174.735 823.14 177.261C824.074 179.788 825.406 181.751 827.136 183.152C828.893 184.525 830.994 185.212 833.438 185.212C835.91 185.212 838.011 184.525 839.741 183.152C841.471 181.751 842.776 179.788 843.654 177.261C844.561 174.735 845.014 171.769 845.014 168.364C845.014 164.958 844.561 162.006 843.654 159.507C842.776 157.008 841.471 155.072 839.741 153.699C838.038 152.326 835.937 151.639 833.438 151.639C830.967 151.639 828.866 152.312 827.136 153.658C825.406 155.003 824.074 156.926 823.14 159.425C822.234 161.924 821.781 164.903 821.781 168.364Z" fill="#071E2F"/>
<defs>
<linearGradient id="paint0_linear_1130_390" x1="0" y1="0" x2="1280" y2="316" gradientUnits="userSpaceOnUse">
<stop stop-color="#DAE7FA"/>
<stop offset="1" stop-color="#EBFDE0"/>
</linearGradient>
<linearGradient id="paint1_linear_1130_390" x1="410" y1="77" x2="572" y2="239" gradientUnits="userSpaceOnUse">
<stop stop-color="#9DFA41"/>
<stop offset="1" stop-color="#005BFF"/>
</linearGradient>
</defs>
</svg>
