<svg width="40" height="40" viewBox="4 4 32 32" fill="none" xmlns="http://www.w3.org/2000/svg">
    <rect width="25.3" height="25.3" x="7.5" y="7.5" fill="white"/>
    <path d="M20 4C6.824 4 4 6.824 4 20C4 33.176 6.824 36 20 36C33.176 36 36 33.176 36 20C36 6.824 33.176 4 20 4ZM11.1111 11.1111H16.4444C17.4263 11.1111 18.2222 11.907 18.2222 12.8889C18.2222 13.8707 17.4263 14.6667 16.4444 14.6667H11.1111C10.1293 14.6667 9.33333 13.8707 9.33333 12.8889C9.33333 11.907 10.1293 11.1111 11.1111 11.1111ZM11.1111 25.3333H14.6667C15.6485 25.3333 16.4444 26.1293 16.4444 27.1111C16.4444 28.093 15.6485 28.8889 14.6667 28.8889H11.1111C10.1293 28.8889 9.33333 28.093 9.33333 27.1111C9.33333 26.1293 10.1293 25.3333 11.1111 25.3333ZM11.1111 18.2222H21.7778C22.7596 18.2222 23.5556 19.0182 23.5556 20C23.5556 20.9818 22.7596 21.7778 21.7778 21.7778H11.1111C10.1293 21.7778 9.33333 20.9818 9.33333 20C9.33333 19.0182 10.1293 18.2222 11.1111 18.2222ZM32.0889 22.8444L26.7556 29.9556C26.4463 30.3678 25.9734 30.6257 25.4594 30.6622C24.9453 30.6987 24.4407 30.5104 24.0763 30.146L20.5207 26.5904C19.8264 25.8961 19.8264 24.7705 20.5207 24.0763C21.215 23.382 22.3406 23.382 23.0349 24.0763L25.141 26.1824L29.2444 20.7111C29.8335 19.9256 30.9479 19.7664 31.7333 20.3556C32.5188 20.9447 32.678 22.059 32.0889 22.8444Z"
          fill="url(#paint0_linear_1070_852)"/>
    <defs>
        <linearGradient id="paint0_linear_1070_852" x1="4" y1="4" x2="36" y2="36" gradientUnits="userSpaceOnUse">
            <stop stop-color="#9DFA41"/>
            <stop offset="1" stop-color="#005BFF"/>
        </linearGradient>
    </defs>
</svg>
